<svg xmlns="http://www.w3.org/2000/svg" xmlns:xlink="http://www.w3.org/1999/xlink" width="48" height="4416" viewBox="0 0 48 4416"><svg width="24" height="24" viewBox="0 0 24 24" id="access_time-blue-24" y="0"><path fill-opacity=".9" d="M11.99 2C6.47 2 2 6.48 2 12s4.47 10 9.99 10C17.52 22 22 17.52 22 12S17.52 2 11.99 2zM12 20c-4.42 0-8-3.58-8-8s3.58-8 8-8 8 3.58 8 8-3.58 8-8 8zm.5-13H11v6l5.25 3.15.75-1.23-4.5-2.67z" fill="#005DAA"></path></svg><svg width="48" height="48" viewBox="0 0 48 48" id="access_time-blue-48" y="24"><path fill-opacity=".9" d="M23.99 4C12.94 4 4 12.95 4 24s8.94 20 19.99 20C35.04 44 44 35.05 44 24S35.04 4 23.99 4zM24 40c-8.84 0-16-7.16-16-16S15.16 8 24 8s16 7.16 16 16-7.16 16-16 16zm1-26h-3v12l10.49 6.3L34 29.84l-9-5.34z" fill="#005DAA"></path></svg><svg width="24" height="24" viewBox="0 0 24 24" id="account_circle-blue-24" y="72"><path d="M12 2C6.48 2 2 6.48 2 12s4.48 10 10 10 10-4.48 10-10S17.52 2 12 2zm0 3c1.66 0 3 1.34 3 3s-1.34 3-3 3-3-1.34-3-3 1.34-3 3-3zm0 14.2a7.2 7.2 0 0 1-6-3.22c.03-1.99 4-3.08 6-3.08 1.99 0 5.97 1.09 6 3.08a7.2 7.2 0 0 1-6 3.22z" fill="#005DAA"></path></svg><svg width="48" height="48" viewBox="0 0 48 48" id="account_circle-blue-48" y="96"><path d="M24 4C12.95 4 4 12.95 4 24s8.95 20 20 20 20-8.95 20-20S35.05 4 24 4zm0 6c3.31 0 6 2.69 6 6 0 3.32-2.69 6-6 6s-6-2.68-6-6c0-3.31 2.69-6 6-6zm0 28.4c-5.01 0-9.41-2.56-12-6.44.05-3.97 8.01-6.16 12-6.16s11.94 2.19 12 6.16c-2.59 3.88-6.99 6.44-12 6.44z" fill="#005DAA"></path></svg><svg width="24" height="24" viewBox="0 0 24 24" id="account_circle-white-24" y="144"><path d="M12 2C6.48 2 2 6.48 2 12s4.48 10 10 10 10-4.48 10-10S17.52 2 12 2zm0 3c1.66 0 3 1.34 3 3s-1.34 3-3 3-3-1.34-3-3 1.34-3 3-3zm0 14.2a7.2 7.2 0 0 1-6-3.22c.03-1.99 4-3.08 6-3.08 1.99 0 5.97 1.09 6 3.08a7.2 7.2 0 0 1-6 3.22z" fill="#FFF"></path></svg><svg width="48" height="48" viewBox="0 0 48 48" id="account_circle-white-48" y="168"><path d="M24 4C12.95 4 4 12.95 4 24s8.95 20 20 20 20-8.95 20-20S35.05 4 24 4zm0 6c3.31 0 6 2.69 6 6 0 3.32-2.69 6-6 6s-6-2.68-6-6c0-3.31 2.69-6 6-6zm0 28.4c-5.01 0-9.41-2.56-12-6.44.05-3.97 8.01-6.16 12-6.16s11.94 2.19 12 6.16c-2.59 3.88-6.99 6.44-12 6.44z" fill="#FFF"></path></svg><svg width="24" height="24" viewBox="0 0 24 24" id="add-blue-24" y="216"><path d="M19 13h-6v6h-2v-6H5v-2h6V5h2v6h6v2z" fill="#005DAA"></path></svg><svg width="48" height="48" viewBox="0 0 48 48" id="add-blue-48" y="240"><path d="M38 26H26v12h-4V26H10v-4h12V10h4v12h12v4z" fill="#005DAA"></path></svg><svg width="24" height="24" viewBox="0 0 24 24" id="arrow_forward-black-24" y="288"><path d="M12 4l-1.41 1.41L16.17 11H4v2h12.17l-5.58 5.59L12 20l8-8z"></path></svg><svg width="24" height="24" viewBox="0 0 24 24" id="assignment-black-24" y="312"><path d="M19 3h-4.18C14.4 1.84 13.3 1 12 1c-1.3 0-2.4.84-2.82 2H5c-1.1 0-2 .9-2 2v14c0 1.1.9 2 2 2h14c1.1 0 2-.9 2-2V5c0-1.1-.9-2-2-2zm-7 0c.55 0 1 .45 1 1s-.45 1-1 1-1-.45-1-1 .45-1 1-1zm2 14H7v-2h7v2zm3-4H7v-2h10v2zm0-4H7V7h10v2z"></path></svg><svg width="24" height="24" viewBox="0 0 24 24" id="assignment-blue-24" y="336"><path d="M19 3h-4.18C14.4 1.84 13.3 1 12 1c-1.3 0-2.4.84-2.82 2H5c-1.1 0-2 .9-2 2v14c0 1.1.9 2 2 2h14c1.1 0 2-.9 2-2V5c0-1.1-.9-2-2-2zm-7 0c.55 0 1 .45 1 1s-.45 1-1 1-1-.45-1-1 .45-1 1-1zm2 14H7v-2h7v2zm3-4H7v-2h10v2zm0-4H7V7h10v2z" fill="#005DAA"></path></svg><svg width="48" height="48" viewBox="0 0 48 48" id="assignment-blue-48" y="360"><path d="M38 6h-8.37c-.82-2.32-3.02-4-5.63-4s-4.81 1.68-5.63 4H10c-2.21 0-4 1.79-4 4v28c0 2.21 1.79 4 4 4h28c2.21 0 4-1.79 4-4V10c0-2.21-1.79-4-4-4zM24 6c1.1 0 2 .89 2 2s-.9 2-2 2-2-.89-2-2 .9-2 2-2zm4 28H14v-4h14v4zm6-8H14v-4h20v4zm0-8H14v-4h20v4z" fill="#005DAA"></path></svg><svg width="24" height="24" viewBox="0 0 24 24" id="assignment-grey-24" y="408"><path d="M19 3h-4.18C14.4 1.84 13.3 1 12 1c-1.3 0-2.4.84-2.82 2H5c-1.1 0-2 .9-2 2v14c0 1.1.9 2 2 2h14c1.1 0 2-.9 2-2V5c0-1.1-.9-2-2-2zm-7 0c.55 0 1 .45 1 1s-.45 1-1 1-1-.45-1-1 .45-1 1-1zm2 14H7v-2h7v2zm3-4H7v-2h10v2zm0-4H7V7h10v2z" fill="#999"></path></svg><svg width="24" height="24" viewBox="0 0 24 24" id="assignment-white-24" y="432"><path d="M19 3h-4.18C14.4 1.84 13.3 1 12 1c-1.3 0-2.4.84-2.82 2H5c-1.1 0-2 .9-2 2v14c0 1.1.9 2 2 2h14c1.1 0 2-.9 2-2V5c0-1.1-.9-2-2-2zm-7 0c.55 0 1 .45 1 1s-.45 1-1 1-1-.45-1-1 .45-1 1-1zm2 14H7v-2h7v2zm3-4H7v-2h10v2zm0-4H7V7h10v2z" fill="#FFF"></path></svg><svg width="48" height="48" viewBox="0 0 48 48" id="assignment-white-48" y="456"><path d="M38 6h-8.37c-.82-2.32-3.02-4-5.63-4s-4.81 1.68-5.63 4H10c-2.21 0-4 1.79-4 4v28c0 2.21 1.79 4 4 4h28c2.21 0 4-1.79 4-4V10c0-2.21-1.79-4-4-4zM24 6c1.1 0 2 .89 2 2s-.9 2-2 2-2-.89-2-2 .9-2 2-2zm4 28H14v-4h14v4zm6-8H14v-4h20v4zm0-8H14v-4h20v4z" fill="#FFF"></path></svg><svg width="24" height="24" viewBox="0 0 24 24" id="cancel-grey-24" y="504"><path d="M12 2C6.47 2 2 6.47 2 12s4.47 10 10 10 10-4.47 10-10S17.53 2 12 2zm5 13.59L15.59 17 12 13.41 8.41 17 7 15.59 10.59 12 7 8.41 8.41 7 12 10.59 15.59 7 17 8.41 13.41 12 17 15.59z" fill="#999"></path></svg><svg width="24" height="24" viewBox="0 0 24 24" id="cancel-red-24" y="528"><path d="M12 2C6.47 2 2 6.47 2 12s4.47 10 10 10 10-4.47 10-10S17.53 2 12 2zm5 13.59L15.59 17 12 13.41 8.41 17 7 15.59 10.59 12 7 8.41 8.41 7 12 10.59 15.59 7 17 8.41 13.41 12 17 15.59z" fill="#ed3124"></path></svg><svg width="24" height="24" viewBox="0 0 24 24" id="check-green-24" y="552"><path d="M9 16.17L4.83 12l-1.42 1.41L9 19 21 7l-1.41-1.41z" fill="#008A00"></path></svg><svg width="24" height="24" viewBox="0 0 24 24" id="check-grey-24" y="576"><path d="M9 16.17L4.83 12l-1.42 1.41L9 19 21 7l-1.41-1.41z" fill="#999"></path></svg><svg width="24" height="24" viewBox="0 0 24 24" id="check_box-black-24" y="600"><path d="M19 3H5a2 2 0 0 0-2 2v14a2 2 0 0 0 2 2h14a2 2 0 0 0 2-2V5a2 2 0 0 0-2-2zm-9 14l-5-5 1.41-1.41L10 14.17l7.59-7.59L19 8l-9 9z"></path></svg><svg width="24" height="24" viewBox="0 0 24 24" id="check_box-blue-24" y="624"><path d="M19 3H5a2 2 0 0 0-2 2v14a2 2 0 0 0 2 2h14a2 2 0 0 0 2-2V5a2 2 0 0 0-2-2zm-9 14l-5-5 1.41-1.41L10 14.17l7.59-7.59L19 8l-9 9z" fill="#005DAA"></path></svg><svg width="48" height="48" viewBox="0 0 48 48" id="check_box-blue-48" y="648"><path d="M38 6H10c-2.21 0-4 1.79-4 4v28c0 2.21 1.79 4 4 4h28c2.21 0 4-1.79 4-4V10c0-2.21-1.79-4-4-4zM20 34L10 24l2.83-2.83L20 28.34l15.17-15.17L38 16 20 34z" fill="#005DAA"></path></svg><svg width="24" height="24" viewBox="0 0 24 24" id="check_box-white-24" y="696"><path d="M19 3H5a2 2 0 0 0-2 2v14a2 2 0 0 0 2 2h14a2 2 0 0 0 2-2V5a2 2 0 0 0-2-2zm-9 14l-5-5 1.41-1.41L10 14.17l7.59-7.59L19 8l-9 9z" fill="#FFF"></path></svg><svg width="48" height="48" viewBox="0 0 48 48" id="check_box-white-48" y="720"><path d="M38 6H10c-2.21 0-4 1.79-4 4v28c0 2.21 1.79 4 4 4h28c2.21 0 4-1.79 4-4V10c0-2.21-1.79-4-4-4zM20 34L10 24l2.83-2.83L20 28.34l15.17-15.17L38 16 20 34z" fill="#FFF"></path></svg><svg width="24" height="24" viewBox="0 0 24 24" id="check_box_outline_blank-black-24" y="768"><path d="M19 5v14H5V5h14m0-2H5c-1.1 0-2 .9-2 2v14c0 1.1.9 2 2 2h14c1.1 0 2-.9 2-2V5c0-1.1-.9-2-2-2z"></path></svg><svg width="24" height="24" viewBox="0 0 24 24" id="check_box_outline_blank-blue-24" y="792"><path d="M19 5v14H5V5h14m0-2H5c-1.1 0-2 .9-2 2v14c0 1.1.9 2 2 2h14c1.1 0 2-.9 2-2V5c0-1.1-.9-2-2-2z" fill="#005DAA"></path></svg><svg width="48" height="48" viewBox="0 0 48 48" id="check_box_outline_blank-blue-48" y="816"><path d="M38 10v28H10V10h28m0-4H10c-2.21 0-4 1.79-4 4v28c0 2.21 1.79 4 4 4h28c2.21 0 4-1.79 4-4V10c0-2.21-1.79-4-4-4z" fill="#005DAA"></path></svg><svg width="24" height="24" viewBox="0 0 24 24" id="check_box_outline_blank-white-24" y="864"><path d="M19 5v14H5V5h14m0-2H5c-1.1 0-2 .9-2 2v14c0 1.1.9 2 2 2h14c1.1 0 2-.9 2-2V5c0-1.1-.9-2-2-2z" fill="#FFF"></path></svg><svg width="48" height="48" viewBox="0 0 48 48" id="check_box_outline_blank-white-48" y="888"><path d="M38 10v28H10V10h28m0-4H10c-2.21 0-4 1.79-4 4v28c0 2.21 1.79 4 4 4h28c2.21 0 4-1.79 4-4V10c0-2.21-1.79-4-4-4z" fill="#FFF"></path></svg><svg width="24" height="24" viewBox="0 0 24 24" id="check_circle-green-24" y="936"><path d="M12 2C6.48 2 2 6.48 2 12s4.48 10 10 10 10-4.48 10-10S17.52 2 12 2zm-2 15l-5-5 1.41-1.41L10 14.17l7.59-7.59L19 8l-9 9z" fill="#008A00"></path></svg><svg width="24" height="24" viewBox="0 0 24 24" id="clear-black-24" y="960"><path d="M19 6.41L17.59 5 12 10.59 6.41 5 5 6.41 10.59 12 5 17.59 6.41 19 12 13.41 17.59 19 19 17.59 13.41 12z"></path></svg><svg width="24" height="24" viewBox="0 0 24 24" id="clear-blue-24" y="984"><path d="M19 6.41L17.59 5 12 10.59 6.41 5 5 6.41 10.59 12 5 17.59 6.41 19 12 13.41 17.59 19 19 17.59 13.41 12z" fill="#005DAA"></path></svg><svg width="48" height="48" viewBox="0 0 48 48" id="clear-blue-48" y="1008"><path d="M38 12.83L35.17 10 24 21.17 12.83 10 10 12.83 21.17 24 10 35.17 12.83 38 24 26.83 35.17 38 38 35.17 26.83 24z" fill="#005DAA"></path></svg><svg width="24" height="24" viewBox="0 0 24 24" id="clear-grey-24" y="1056"><path d="M19 6.41L17.59 5 12 10.59 6.41 5 5 6.41 10.59 12 5 17.59 6.41 19 12 13.41 17.59 19 19 17.59 13.41 12z" fill="#999"></path></svg><svg width="24" height="24" viewBox="0 0 24 24" id="clear-red-24" y="1080"><path d="M19 6.41L17.59 5 12 10.59 6.41 5 5 6.41 10.59 12 5 17.59 6.41 19 12 13.41 17.59 19 19 17.59 13.41 12z" fill="#ed3124"></path></svg><svg width="24" height="24" viewBox="0 0 24 24" id="close-black-24" y="1104"><path d="M19 6.41L17.59 5 12 10.59 6.41 5 5 6.41 10.59 12 5 17.59 6.41 19 12 13.41 17.59 19 19 17.59 13.41 12z"></path></svg><svg width="24" height="24" viewBox="0 0 24 24" id="close-blue-24" y="1128"><path d="M19 6.41L17.59 5 12 10.59 6.41 5 5 6.41 10.59 12 5 17.59 6.41 19 12 13.41 17.59 19 19 17.59 13.41 12z" fill="#005DAA"></path></svg><svg width="48" height="48" viewBox="0 0 48 48" id="close-blue-48" y="1152"><path d="M38 12.83L35.17 10 24 21.17 12.83 10 10 12.83 21.17 24 10 35.17 12.83 38 24 26.83 35.17 38 38 35.17 26.83 24z" fill="#005DAA"></path></svg><svg width="24" height="24" viewBox="0 0 24 24" id="close-grey-24" y="1200"><path d="M19 6.41L17.59 5 12 10.59 6.41 5 5 6.41 10.59 12 5 17.59 6.41 19 12 13.41 17.59 19 19 17.59 13.41 12z" fill="#999"></path></svg><svg width="24" height="24" viewBox="0 0 24 24" id="close-red-24" y="1224"><path d="M19 6.41L17.59 5 12 10.59 6.41 5 5 6.41 10.59 12 5 17.59 6.41 19 12 13.41 17.59 19 19 17.59 13.41 12z" fill="#ed3124"></path></svg><svg width="24" height="24" viewBox="0 0 24 24" id="close-white-24" y="1248"><path d="M19 6.41L17.59 5 12 10.59 6.41 5 5 6.41 10.59 12 5 17.59 6.41 19 12 13.41 17.59 19 19 17.59 13.41 12z" fill="#FFF"></path></svg><svg width="48" height="48" viewBox="0 0 48 48" id="close-white-48" y="1272"><path d="M38 12.83L35.17 10 24 21.17 12.83 10 10 12.83 21.17 24 10 35.17 12.83 38 24 26.83 35.17 38 38 35.17 26.83 24z" fill="#FFF"></path></svg><svg width="24" height="24" viewBox="0 0 24 24" id="content_copy-blue-24" y="1320"><path d="M16 1H4c-1.1 0-2 .9-2 2v14h2V3h12V1zm3 4H8c-1.1 0-2 .9-2 2v14c0 1.1.9 2 2 2h11c1.1 0 2-.9 2-2V7c0-1.1-.9-2-2-2zm0 16H8V7h11v14z" fill="#005DAA"></path></svg><svg width="48" height="48" viewBox="0 0 48 48" id="content_copy-blue-48" y="1344"><path d="M32 2H8C5.79 2 4 3.79 4 6v28h4V6h24V2zm6 8H16c-2.21 0-4 1.79-4 4v28c0 2.21 1.79 4 4 4h22c2.21 0 4-1.79 4-4V14c0-2.21-1.79-4-4-4zm0 32H16V14h22v28z" fill="#005DAA"></path></svg><svg width="24" height="24" viewBox="0 0 24 24" id="delete-black-24" y="1392"><path d="M6 19c0 1.1.9 2 2 2h8c1.1 0 2-.9 2-2V7H6v12zM19 4h-3.5l-1-1h-5l-1 1H5v2h14V4z"></path></svg><svg width="24" height="24" viewBox="0 0 24 24" id="delete-blue-24" y="1416"><path d="M6 19c0 1.1.9 2 2 2h8c1.1 0 2-.9 2-2V7H6v12zM19 4h-3.5l-1-1h-5l-1 1H5v2h14V4z" fill="#005DAA"></path></svg><svg width="48" height="48" viewBox="0 0 48 48" id="delete-blue-48" y="1440"><path d="M12 38c0 2.21 1.79 4 4 4h16c2.21 0 4-1.79 4-4V14H12v24zM38 8h-7l-2-2H19l-2 2h-7v4h28V8z" fill="#005DAA"></path></svg><svg width="24" height="24" viewBox="0 0 24 24" id="delete-grey-24" y="1488"><path d="M6 19c0 1.1.9 2 2 2h8c1.1 0 2-.9 2-2V7H6v12zM19 4h-3.5l-1-1h-5l-1 1H5v2h14V4z" fill="#999"></path></svg><svg width="24" height="24" viewBox="0 0 24 24" id="delete-red-24" y="1512"><path d="M6 19c0 1.1.9 2 2 2h8c1.1 0 2-.9 2-2V7H6v12zM19 4h-3.5l-1-1h-5l-1 1H5v2h14V4z" fill="#ed3124"></path></svg><svg width="24" height="24" viewBox="0 0 24 24" id="done-blue-24" y="1536"><path d="M9 16.17L4.83 12l-1.42 1.41L9 19 21 7l-1.41-1.41z" fill="#005DAA"></path></svg><svg width="48" height="48" viewBox="0 0 48 48" id="done-blue-48" y="1560"><path d="M18 32.34L9.66 24l-2.83 2.83L18 38l24-24-2.83-2.83z" fill="#005DAA"></path></svg><svg width="24" height="24" viewBox="0 0 24 24" id="done-green-24" y="1608"><path d="M9 16.17L4.83 12l-1.42 1.41L9 19 21 7l-1.41-1.41z" fill="#008A00"></path></svg><svg width="24" height="24" viewBox="0 0 24 24" id="done-white-24" y="1632"><path d="M9 16.17L4.83 12l-1.42 1.41L9 19 21 7l-1.41-1.41z" fill="#FFF"></path></svg><svg width="48" height="48" viewBox="0 0 48 48" id="done-white-48" y="1656"><path d="M18 32.34L9.66 24l-2.83 2.83L18 38l24-24-2.83-2.83z" fill="#FFF"></path></svg><svg width="24" height="24" viewBox="0 0 24 24" id="email-yellow-24" y="1704"><path d="M20 4H4c-1.1 0-1.99.9-1.99 2L2 18c0 1.1.9 2 2 2h16c1.1 0 2-.9 2-2V6c0-1.1-.9-2-2-2zm0 4l-8 5-8-5V6l8 5 8-5v2z" fill="#FFCF00"></path></svg><svg width="24" height="24" viewBox="0 0 24 24" id="error-blue-24" y="1728"><path d="M12 2C6.48 2 2 6.48 2 12s4.48 10 10 10 10-4.48 10-10S17.52 2 12 2zm1 15h-2v-2h2v2zm0-4h-2V7h2v6z" fill="#005DAA"></path></svg><svg width="48" height="48" viewBox="0 0 48 48" id="error-blue-48" y="1752"><path d="M24 4C12.96 4 4 12.95 4 24s8.96 20 20 20 20-8.95 20-20S35.04 4 24 4zm2 30h-4v-4h4v4zm0-8h-4V14h4v12z" fill="#005DAA"></path></svg><svg width="24" height="24" viewBox="0 0 24 24" id="error-red-24" y="1800"><path d="M12 2C6.48 2 2 6.48 2 12s4.48 10 10 10 10-4.48 10-10S17.52 2 12 2zm1 15h-2v-2h2v2zm0-4h-2V7h2v6z" fill="#ed3124"></path></svg><svg width="24" height="24" viewBox="0 0 24 24" id="error-yellow-24" y="1824"><path d="M12 2C6.48 2 2 6.48 2 12s4.48 10 10 10 10-4.48 10-10S17.52 2 12 2zm1 15h-2v-2h2v2zm0-4h-2V7h2v6z" fill="#FFCF00"></path></svg><svg width="24" height="24" viewBox="0 0 24 24" id="forward-blue-24" y="1848"><path d="M12 8V4l8 8-8 8v-4H4V8z" fill="#005DAA"></path></svg><svg width="48" height="48" viewBox="0 0 48 48" id="forward-blue-48" y="1872"><path d="M24 16V8l16 16-16 16v-8H8V16z" fill="#005DAA"></path></svg><svg width="24" height="24" viewBox="0 0 24 24" id="fullscreen-blue-24" y="1920"><path d="M7 14H5v5h5v-2H7v-3zm-2-4h2V7h3V5H5v5zm12 7h-3v2h5v-5h-2v3zM14 5v2h3v3h2V5h-5z" fill="#005DAA"></path></svg><svg width="48" height="48" viewBox="0 0 48 48" id="fullscreen-blue-48" y="1944"><path d="M14 28h-4v10h10v-4h-6v-6zm-4-8h4v-6h6v-4H10v10zm24 14h-6v4h10V28h-4v6zm-6-24v4h6v6h4V10H28z" fill="#005DAA"></path></svg><svg width="24" height="24" viewBox="0 0 24 24" id="gps_fixed-white-24" y="1992"><path d="M12 8c-2.21 0-4 1.79-4 4s1.79 4 4 4 4-1.79 4-4-1.79-4-4-4zm8.94 3A8.994 8.994 0 0 0 13 3.06V1h-2v2.06A8.994 8.994 0 0 0 3.06 11H1v2h2.06A8.994 8.994 0 0 0 11 20.94V23h2v-2.06A8.994 8.994 0 0 0 20.94 13H23v-2h-2.06zM12 19c-3.87 0-7-3.13-7-7s3.13-7 7-7 7 3.13 7 7-3.13 7-7 7z" fill="#FFF"></path></svg><svg width="48" height="48" viewBox="0 0 48 48" id="gps_fixed-white-48" y="2016"><path d="M24 16c-4.42 0-8 3.58-8 8s3.58 8 8 8 8-3.58 8-8-3.58-8-8-8zm17.88 6C40.96 13.66 34.34 7.04 26 6.12V2h-4v4.12C13.66 7.04 7.04 13.66 6.12 22H2v4h4.12c.92 8.34 7.54 14.96 15.88 15.88V46h4v-4.12c8.34-.92 14.96-7.54 15.88-15.88H46v-4h-4.12zM24 38c-7.73 0-14-6.27-14-14s6.27-14 14-14 14 6.27 14 14-6.27 14-14 14z" fill="#FFF"></path></svg><svg width="24" height="24" viewBox="0 0 24 24" id="highlight_remove-red-24" y="2064"><path d="M14.59 8L12 10.59 9.41 8 8 9.41 10.59 12 8 14.59 9.41 16 12 13.41 14.59 16 16 14.59 13.41 12 16 9.41 14.59 8zM12 2C6.47 2 2 6.47 2 12s4.47 10 10 10 10-4.47 10-10S17.53 2 12 2zm0 18c-4.41 0-8-3.59-8-8s3.59-8 8-8 8 3.59 8 8-3.59 8-8 8z" fill="#ed3124"></path></svg><svg width="24" height="24" viewBox="0 0 24 24" id="home-blue-24" y="2088"><path d="M10 20v-6h4v6h5v-8h3L12 3 2 12h3v8z" fill="#005DAA"></path></svg><svg width="48" height="48" viewBox="0 0 48 48" id="home-blue-48" y="2112"><path d="M20 40V28h8v12h10V24h6L24 6 4 24h6v16z" fill="#005DAA"></path></svg><svg width="24" height="24" viewBox="0 0 24 24" id="home-white-24" y="2160"><path d="M10 20v-6h4v6h5v-8h3L12 3 2 12h3v8z" fill="#FFF"></path></svg><svg width="48" height="48" viewBox="0 0 48 48" id="home-white-48" y="2184"><path d="M20 40V28h8v12h10V24h6L24 6 4 24h6v16z" fill="#FFF"></path></svg><svg width="24" height="24" viewBox="0 0 24 24" id="info-blue-24" y="2232"><path d="M12 2C6.48 2 2 6.48 2 12s4.48 10 10 10 10-4.48 10-10S17.52 2 12 2zm1 15h-2v-6h2v6zm0-8h-2V7h2v2z" fill="#005DAA"></path></svg><svg width="48" height="48" viewBox="0 0 48 48" id="info-blue-48" y="2256"><path d="M24 4C12.95 4 4 12.95 4 24s8.95 20 20 20 20-8.95 20-20S35.05 4 24 4zm2 30h-4V22h4v12zm0-16h-4v-4h4v4z" fill="#005DAA"></path></svg><svg width="24" height="24" viewBox="0 0 24 24" id="keyboard_arrow_down-mercury-24" y="2304"><path d="M7.41 7.84L12 12.42l4.59-4.58L18 9.25l-6 6-6-6z" fill="#E5E5E5"></path></svg><svg width="24" height="24" viewBox="0 0 24 24" id="keyboard_arrow_down-white-24" y="2328"><path d="M7.41 7.84L12 12.42l4.59-4.58L18 9.25l-6 6-6-6z" fill="#FFF"></path></svg><svg width="48" height="48" viewBox="0 0 48 48" id="keyboard_arrow_down-white-48" y="2352"><path d="M14.83 16.42L24 25.59l9.17-9.17L36 19.25l-12 12-12-12z" fill="#FFF"></path></svg><svg width="24" height="24" viewBox="0 0 24 24" id="keyboard_arrow_left-black-24" y="2400"><path d="M15.41 16.09l-4.58-4.59 4.58-4.59L14 5.5l-6 6 6 6z"></path></svg><svg width="24" height="24" viewBox="0 0 24 24" id="keyboard_arrow_left-blue-24" y="2424"><path d="M15.41 16.09l-4.58-4.59 4.58-4.59L14 5.5l-6 6 6 6z" fill="#005DAA"></path></svg><svg width="48" height="48" viewBox="0 0 48 48" id="keyboard_arrow_left-blue-48" y="2448"><path d="M30.83 32.67l-9.17-9.17 9.17-9.17L28 11.5l-12 12 12 12z" fill="#005DAA"></path></svg><svg width="24" height="24" viewBox="0 0 24 24" id="keyboard_arrow_left-mercury-24" y="2496"><path d="M15.41 16.09l-4.58-4.59 4.58-4.59L14 5.5l-6 6 6 6z" fill="#E5E5E5"></path></svg><svg width="24" height="24" viewBox="0 0 24 24" id="keyboard_arrow_left-white-24" y="2520"><path d="M15.41 16.09l-4.58-4.59 4.58-4.59L14 5.5l-6 6 6 6z" fill="#FFF"></path></svg><svg width="48" height="48" viewBox="0 0 48 48" id="keyboard_arrow_left-white-48" y="2544"><path d="M30.83 32.67l-9.17-9.17 9.17-9.17L28 11.5l-12 12 12 12z" fill="#FFF"></path></svg><svg width="24" height="24" viewBox="0 0 24 24" id="keyboard_arrow_right-black-24" y="2592"><path d="M8.59 16.34l4.58-4.59-4.58-4.59L10 5.75l6 6-6 6z"></path></svg><svg width="24" height="24" viewBox="0 0 24 24" id="keyboard_arrow_right-blue-24" y="2616"><path d="M8.59 16.34l4.58-4.59-4.58-4.59L10 5.75l6 6-6 6z" fill="#005DAA"></path></svg><svg width="48" height="48" viewBox="0 0 48 48" id="keyboard_arrow_right-blue-48" y="2640"><path d="M17.17 32.92l9.17-9.17-9.17-9.17L20 11.75l12 12-12 12z" fill="#005DAA"></path></svg><svg width="24" height="24" viewBox="0 0 24 24" id="keyboard_arrow_right-mercury-24" y="2688"><path d="M8.59 16.34l4.58-4.59-4.58-4.59L10 5.75l6 6-6 6z" fill="#E5E5E5"></path></svg><svg width="24" height="24" viewBox="0 0 24 24" id="keyboard_arrow_right-white-24" y="2712"><path d="M8.59 16.34l4.58-4.59-4.58-4.59L10 5.75l6 6-6 6z" fill="#FFF"></path></svg><svg width="48" height="48" viewBox="0 0 48 48" id="keyboard_arrow_right-white-48" y="2736"><path d="M17.17 32.92l9.17-9.17-9.17-9.17L20 11.75l12 12-12 12z" fill="#FFF"></path></svg><svg width="24" height="24" viewBox="0 0 24 24" id="keyboard_arrow_up-mercury-24" y="2784"><path d="M7.41 15.41L12 10.83l4.59 4.58L18 14l-6-6-6 6z" fill="#E5E5E5"></path></svg><svg width="24" height="24" viewBox="0 0 24 24" id="keyboard_arrow_up-white-24" y="2808"><path d="M7.41 15.41L12 10.83l4.59 4.58L18 14l-6-6-6 6z" fill="#FFF"></path></svg><svg width="48" height="48" viewBox="0 0 48 48" id="keyboard_arrow_up-white-48" y="2832"><path d="M14.83 30.83L24 21.66l9.17 9.17L36 28 24 16 12 28z" fill="#FFF"></path></svg><svg width="24" height="24" viewBox="0 0 24 24" id="list-black-24" y="2880"><path d="M3 13h2v-2H3v2zm0 4h2v-2H3v2zm0-8h2V7H3v2zm4 4h14v-2H7v2zm0 4h14v-2H7v2zM7 7v2h14V7H7z"></path></svg><svg width="24" height="24" viewBox="0 0 24 24" id="local_offer-blue-24" y="2904"><path d="M21.41 11.58l-9-9C12.05 2.22 11.55 2 11 2H4c-1.1 0-2 .9-2 2v7c0 .55.22 1.05.59 1.42l9 9c.36.36.86.58 1.41.58.55 0 1.05-.22 1.41-.59l7-7c.37-.36.59-.86.59-1.41 0-.55-.23-1.06-.59-1.42zM5.5 7C4.67 7 4 6.33 4 5.5S4.67 4 5.5 4 7 4.67 7 5.5 6.33 7 5.5 7z" fill="#005DAA"></path></svg><svg width="48" height="48" viewBox="0 0 48 48" id="local_offer-blue-48" y="2928"><path d="M42.82 23.16L24.83 5.17A4.025 4.025 0 0 0 22 4H8C5.79 4 4 5.79 4 8v14c0 1.11.45 2.11 1.18 2.83l18 18C23.9 43.55 24.9 44 26 44c1.1 0 2.11-.45 2.83-1.17l14-14C43.55 28.1 44 27.1 44 26c0-1.11-.45-2.11-1.18-2.84zM11 14c-1.66 0-3-1.34-3-3s1.34-3 3-3 3 1.34 3 3-1.34 3-3 3z" fill="#005DAA"></path></svg><svg width="24" height="24" viewBox="0 0 24 24" id="local_shipping-black-24" y="2976"><path d="M20 8h-3V4H3c-1.1 0-2 .9-2 2v11h2c0 1.66 1.34 3 3 3s3-1.34 3-3h6c0 1.66 1.34 3 3 3s3-1.34 3-3h2v-5l-3-4zM6 18.5c-.83 0-1.5-.67-1.5-1.5s.67-1.5 1.5-1.5 1.5.67 1.5 1.5-.67 1.5-1.5 1.5zm13.5-9l1.96 2.5H17V9.5h2.5zm-1.5 9c-.83 0-1.5-.67-1.5-1.5s.67-1.5 1.5-1.5 1.5.67 1.5 1.5-.67 1.5-1.5 1.5z"></path></svg><svg width="24" height="24" viewBox="0 0 24 24" id="local_shipping-blue-24" y="3000"><path d="M20 8h-3V4H3c-1.1 0-2 .9-2 2v11h2c0 1.66 1.34 3 3 3s3-1.34 3-3h6c0 1.66 1.34 3 3 3s3-1.34 3-3h2v-5l-3-4zM6 18.5c-.83 0-1.5-.67-1.5-1.5s.67-1.5 1.5-1.5 1.5.67 1.5 1.5-.67 1.5-1.5 1.5zm13.5-9l1.96 2.5H17V9.5h2.5zm-1.5 9c-.83 0-1.5-.67-1.5-1.5s.67-1.5 1.5-1.5 1.5.67 1.5 1.5-.67 1.5-1.5 1.5z" fill="#005DAA"></path></svg><svg width="48" height="48" viewBox="0 0 48 48" id="local_shipping-blue-48" y="3024"><path d="M40 16h-6V8H6c-2.21 0-4 1.79-4 4v22h4c0 3.31 2.69 6 6 6s6-2.69 6-6h12c0 3.31 2.69 6 6 6s6-2.69 6-6h4V24l-6-8zM12 37c-1.66 0-3-1.34-3-3s1.34-3 3-3 3 1.34 3 3-1.34 3-3 3zm27-18l3.93 5H34v-5h5zm-3 18c-1.66 0-3-1.34-3-3s1.34-3 3-3 3 1.34 3 3-1.34 3-3 3z" fill="#005DAA"></path></svg><svg width="24" height="24" viewBox="0 0 24 24" id="local_shipping-green-24" y="3072"><path d="M20 8h-3V4H3c-1.1 0-2 .9-2 2v11h2c0 1.66 1.34 3 3 3s3-1.34 3-3h6c0 1.66 1.34 3 3 3s3-1.34 3-3h2v-5l-3-4zM6 18.5c-.83 0-1.5-.67-1.5-1.5s.67-1.5 1.5-1.5 1.5.67 1.5 1.5-.67 1.5-1.5 1.5zm13.5-9l1.96 2.5H17V9.5h2.5zm-1.5 9c-.83 0-1.5-.67-1.5-1.5s.67-1.5 1.5-1.5 1.5.67 1.5 1.5-.67 1.5-1.5 1.5z" fill="#008A00"></path></svg><svg width="24" height="24" viewBox="0 0 24 24" id="local_shipping-grey-24" y="3096"><path d="M20 8h-3V4H3c-1.1 0-2 .9-2 2v11h2c0 1.66 1.34 3 3 3s3-1.34 3-3h6c0 1.66 1.34 3 3 3s3-1.34 3-3h2v-5l-3-4zM6 18.5c-.83 0-1.5-.67-1.5-1.5s.67-1.5 1.5-1.5 1.5.67 1.5 1.5-.67 1.5-1.5 1.5zm13.5-9l1.96 2.5H17V9.5h2.5zm-1.5 9c-.83 0-1.5-.67-1.5-1.5s.67-1.5 1.5-1.5 1.5.67 1.5 1.5-.67 1.5-1.5 1.5z" fill="#999"></path></svg><svg width="24" height="24" viewBox="0 0 24 24" id="location_searching-blue-24" y="3120"><path d="M20.94 11A8.994 8.994 0 0 0 13 3.06V1h-2v2.06A8.994 8.994 0 0 0 3.06 11H1v2h2.06A8.994 8.994 0 0 0 11 20.94V23h2v-2.06A8.994 8.994 0 0 0 20.94 13H23v-2h-2.06zM12 19c-3.87 0-7-3.13-7-7s3.13-7 7-7 7 3.13 7 7-3.13 7-7 7z" fill="#005DAA"></path></svg><svg width="48" height="48" viewBox="0 0 48 48" id="location_searching-blue-48" y="3144"><path d="M41.88 22.17C40.96 13.83 34.34 7.21 26 6.29V2.17h-4v4.12c-8.34.92-14.96 7.54-15.88 15.88H2v4h4.12c.92 8.34 7.54 14.96 15.88 15.88v4.12h4v-4.12c8.34-.92 14.96-7.54 15.88-15.88H46v-4h-4.12zM24 38.17c-7.73 0-14-6.27-14-14s6.27-14 14-14 14 6.27 14 14-6.27 14-14 14z" fill="#005DAA"></path></svg><svg width="24" height="24" viewBox="0 0 24 24" id="lock-blue-24" y="3192"><path d="M18 8h-1V6c0-2.76-2.24-5-5-5S7 3.24 7 6v2H6c-1.1 0-2 .9-2 2v10c0 1.1.9 2 2 2h12c1.1 0 2-.9 2-2V10c0-1.1-.9-2-2-2zm-6 9c-1.1 0-2-.9-2-2s.9-2 2-2 2 .9 2 2-.9 2-2 2zm3.1-9H8.9V6c0-1.71 1.39-3.1 3.1-3.1 1.71 0 3.1 1.39 3.1 3.1v2z" fill="#005DAA"></path></svg><svg width="48" height="48" viewBox="0 0 48 48" id="lock-blue-48" y="3216"><path d="M36 16h-2v-4c0-5.52-4.48-10-10-10S14 6.48 14 12v4h-2c-2.21 0-4 1.79-4 4v20c0 2.21 1.79 4 4 4h24c2.21 0 4-1.79 4-4V20c0-2.21-1.79-4-4-4zM24 34c-2.21 0-4-1.79-4-4s1.79-4 4-4 4 1.79 4 4-1.79 4-4 4zm6.2-18H17.8v-4c0-3.42 2.78-6.2 6.2-6.2 3.42 0 6.2 2.78 6.2 6.2v4z" fill="#005DAA"></path></svg><svg width="24" height="24" viewBox="0 0 24 24" id="lock-white-24" y="3264"><path d="M18 8h-1V6c0-2.76-2.24-5-5-5S7 3.24 7 6v2H6c-1.1 0-2 .9-2 2v10c0 1.1.9 2 2 2h12c1.1 0 2-.9 2-2V10c0-1.1-.9-2-2-2zm-6 9c-1.1 0-2-.9-2-2s.9-2 2-2 2 .9 2 2-.9 2-2 2zm3.1-9H8.9V6c0-1.71 1.39-3.1 3.1-3.1 1.71 0 3.1 1.39 3.1 3.1v2z" fill="#FFF"></path></svg><svg width="48" height="48" viewBox="0 0 48 48" id="lock-white-48" y="3288"><path d="M36 16h-2v-4c0-5.52-4.48-10-10-10S14 6.48 14 12v4h-2c-2.21 0-4 1.79-4 4v20c0 2.21 1.79 4 4 4h24c2.21 0 4-1.79 4-4V20c0-2.21-1.79-4-4-4zM24 34c-2.21 0-4-1.79-4-4s1.79-4 4-4 4 1.79 4 4-1.79 4-4 4zm6.2-18H17.8v-4c0-3.42 2.78-6.2 6.2-6.2 3.42 0 6.2 2.78 6.2 6.2v4z" fill="#FFF"></path></svg><svg width="24" height="24" viewBox="0 0 24 24" id="menu-blue-24" y="3336"><path d="M3 18h18v-2H3v2zm0-5h18v-2H3v2zm0-7v2h18V6H3z" fill="#005DAA"></path></svg><svg width="48" height="48" viewBox="0 0 48 48" id="menu-blue-48" y="3360"><path d="M6 36h36v-4H6v4zm0-10h36v-4H6v4zm0-14v4h36v-4H6z" fill="#005DAA"></path></svg><svg width="24" height="24" viewBox="0 0 24 24" id="menu-white-24" y="3408"><path d="M3 18h18v-2H3v2zm0-5h18v-2H3v2zm0-7v2h18V6H3z" fill="#FFF"></path></svg><svg width="48" height="48" viewBox="0 0 48 48" id="menu-white-48" y="3432"><path d="M6 36h36v-4H6v4zm0-10h36v-4H6v4zm0-14v4h36v-4H6z" fill="#FFF"></path></svg><svg width="24" height="24" viewBox="0 0 24 24" id="mode_edit-black-24" y="3480"><path d="M3 17.25V21h3.75L17.81 9.94l-3.75-3.75L3 17.25zM20.71 7.04a.996.996 0 0 0 0-1.41l-2.34-2.34a.996.996 0 0 0-1.41 0l-1.83 1.83 3.75 3.75 1.83-1.83z"></path></svg><svg width="24" height="24" viewBox="0 0 24 24" id="mode_edit-blue-24" y="3504"><path d="M3 17.25V21h3.75L17.81 9.94l-3.75-3.75L3 17.25zM20.71 7.04a.996.996 0 0 0 0-1.41l-2.34-2.34a.996.996 0 0 0-1.41 0l-1.83 1.83 3.75 3.75 1.83-1.83z" fill="#005DAA"></path></svg><svg width="48" height="48" viewBox="0 0 48 48" id="mode_edit-blue-48" y="3528"><path d="M6 34.5V42h7.5l22.13-22.13-7.5-7.5L6 34.5zm35.41-20.41c.78-.78.78-2.05 0-2.83l-4.67-4.67c-.78-.78-2.05-.78-2.83 0l-3.66 3.66 7.5 7.5 3.66-3.66z" fill="#005DAA"></path></svg><svg width="24" height="24" viewBox="0 0 24 24" id="mode_edit-grey-24" y="3576"><path d="M3 17.25V21h3.75L17.81 9.94l-3.75-3.75L3 17.25zM20.71 7.04a.996.996 0 0 0 0-1.41l-2.34-2.34a.996.996 0 0 0-1.41 0l-1.83 1.83 3.75 3.75 1.83-1.83z" fill="#999"></path></svg><svg width="24" height="24" viewBox="0 0 24 24" id="mouse-black-24" y="3600"><path d="M13 1.07V9h7c0-4.08-3.05-7.44-7-7.93zM4 15c0 4.42 3.58 8 8 8s8-3.58 8-8v-4H4v4zm7-13.93C7.05 1.56 4 4.92 4 9h7V1.07z"></path></svg><svg width="24" height="24" viewBox="0 0 24 24" id="mouse-grey-24" y="3624"><path d="M13 1.07V9h7c0-4.08-3.05-7.44-7-7.93zM4 15c0 4.42 3.58 8 8 8s8-3.58 8-8v-4H4v4zm7-13.93C7.05 1.56 4 4.92 4 9h7V1.07z" fill="#999"></path></svg><svg width="24" height="24" viewBox="0 0 24 24" id="place-black-24" y="3648"><path d="M12 2C8.13 2 5 5.13 5 9c0 5.25 7 13 7 13s7-7.75 7-13c0-3.87-3.13-7-7-7zm0 9.5a2.5 2.5 0 0 1 0-5 2.5 2.5 0 0 1 0 5z"></path></svg><svg width="24" height="24" viewBox="0 0 24 24" id="place-blue-24" y="3672"><path d="M12 2C8.13 2 5 5.13 5 9c0 5.25 7 13 7 13s7-7.75 7-13c0-3.87-3.13-7-7-7zm0 9.5a2.5 2.5 0 0 1 0-5 2.5 2.5 0 0 1 0 5z" fill="#005DAA"></path></svg><svg width="48" height="48" viewBox="0 0 48 48" id="place-blue-48" y="3696"><path d="M24 4c-7.73 0-14 6.27-14 14 0 10.5 14 26 14 26s14-15.5 14-26c0-7.73-6.27-14-14-14zm0 19c-2.76 0-5-2.24-5-5s2.24-5 5-5 5 2.24 5 5-2.24 5-5 5z" fill="#005DAA"></path></svg><svg width="24" height="24" viewBox="0 0 24 24" id="place-grey-24" y="3744"><path d="M12 2C8.13 2 5 5.13 5 9c0 5.25 7 13 7 13s7-7.75 7-13c0-3.87-3.13-7-7-7zm0 9.5a2.5 2.5 0 0 1 0-5 2.5 2.5 0 0 1 0 5z" fill="#999"></path></svg><svg width="24" height="24" viewBox="0 0 24 24" id="place-white-24" y="3768"><path d="M12 2C8.13 2 5 5.13 5 9c0 5.25 7 13 7 13s7-7.75 7-13c0-3.87-3.13-7-7-7zm0 9.5a2.5 2.5 0 0 1 0-5 2.5 2.5 0 0 1 0 5z" fill="#FFF"></path></svg><svg width="48" height="48" viewBox="0 0 48 48" id="place-white-48" y="3792"><path d="M24 4c-7.73 0-14 6.27-14 14 0 10.5 14 26 14 26s14-15.5 14-26c0-7.73-6.27-14-14-14zm0 19c-2.76 0-5-2.24-5-5s2.24-5 5-5 5 2.24 5 5-2.24 5-5 5z" fill="#FFF"></path></svg><svg width="24" height="24" viewBox="0 0 24 24" id="refresh-grey-24" y="3840"><path d="M17.65 6.35A7.958 7.958 0 0 0 12 4c-4.42 0-7.99 3.58-7.99 8s3.57 8 7.99 8c3.73 0 6.84-2.55 7.73-6h-2.08A5.99 5.99 0 0 1 12 18c-3.31 0-6-2.69-6-6s2.69-6 6-6c1.66 0 3.14.69 4.22 1.78L13 11h7V4l-2.35 2.35z" fill="#999"></path></svg><svg width="24" height="24" viewBox="0 0 24 24" id="remove-blue-24" y="3864"><path d="M19 13H5v-2h14v2z" fill="#005DAA"></path></svg><svg width="48" height="48" viewBox="0 0 48 48" id="remove-blue-48" y="3888"><path d="M38 26H10v-4h28v4z" fill="#005DAA"></path></svg><svg width="24" height="24" viewBox="0 0 24 24" id="remove_circle-grey-24" y="3936"><path d="M12 2C6.48 2 2 6.48 2 12s4.48 10 10 10 10-4.48 10-10S17.52 2 12 2zm5 11H7v-2h10v2z" fill="#999"></path></svg><svg width="24" height="24" viewBox="0 0 24 24" id="search-white-24" y="3960"><path d="M15.5 14h-.79l-.28-.27A6.471 6.471 0 0 0 16 9.5 6.5 6.5 0 1 0 9.5 16c1.61 0 3.09-.59 4.23-1.57l.27.28v.79l5 4.99L20.49 19l-4.99-5zm-6 0C7.01 14 5 11.99 5 9.5S7.01 5 9.5 5 14 7.01 14 9.5 11.99 14 9.5 14z" fill="#FFF"></path></svg><svg width="48" height="48" viewBox="0 0 48 48" id="search-white-48" y="3984"><path d="M31 28h-1.59l-.55-.55C30.82 25.18 32 22.23 32 19c0-7.18-5.82-13-13-13S6 11.82 6 19s5.82 13 13 13c3.23 0 6.18-1.18 8.45-3.13l.55.55V31l10 9.98L40.98 38 31 28zm-12 0a9 9 0 1 1 .001-18.001A9 9 0 0 1 19 28z" fill="#FFF"></path></svg><svg width="24" height="24" viewBox="0 0 24 24" id="shopping_basket-blue-24" y="4032"><path d="M17.21 9l-4.38-6.56a.993.993 0 0 0-.83-.42c-.32 0-.64.14-.83.43L6.79 9H2c-.55 0-1 .45-1 1 0 .09.01.18.04.27l2.54 9.27c.23.84 1 1.46 1.92 1.46h13c.92 0 1.69-.62 1.93-1.46l2.54-9.27L23 10c0-.55-.45-1-1-1h-4.79zM9 9l3-4.4L15 9H9zm3 8c-1.1 0-2-.9-2-2s.9-2 2-2 2 .9 2 2-.9 2-2 2z" fill="#005DAA"></path></svg><svg width="48" height="48" viewBox="0 0 48 48" id="shopping_basket-blue-48" y="4056"><path d="M34.42 18L25.66 4.89c-.38-.58-1.02-.85-1.66-.85-.64 0-1.28.28-1.66.85L13.58 18H4a2.006 2.006 0 0 0-1.93 2.54l5.07 18.54A4.01 4.01 0 0 0 11 42h26c1.84 0 3.39-1.24 3.85-2.93l5.07-18.54c.05-.16.08-.34.08-.53 0-1.1-.9-2-2-2h-9.58zM18 18l6-8.8 6 8.8H18zm6 16c-2.21 0-4-1.79-4-4s1.79-4 4-4 4 1.79 4 4-1.79 4-4 4z" fill="#005DAA"></path></svg><svg width="24" height="24" viewBox="0 0 24 24" id="shopping_basket-white-24" y="4104"><path d="M17.21 9l-4.38-6.56a.993.993 0 0 0-.83-.42c-.32 0-.64.14-.83.43L6.79 9H2c-.55 0-1 .45-1 1 0 .09.01.18.04.27l2.54 9.27c.23.84 1 1.46 1.92 1.46h13c.92 0 1.69-.62 1.93-1.46l2.54-9.27L23 10c0-.55-.45-1-1-1h-4.79zM9 9l3-4.4L15 9H9zm3 8c-1.1 0-2-.9-2-2s.9-2 2-2 2 .9 2 2-.9 2-2 2z" fill="#FFF"></path></svg><svg width="48" height="48" viewBox="0 0 48 48" id="shopping_basket-white-48" y="4128"><path d="M34.42 18L25.66 4.89c-.38-.58-1.02-.85-1.66-.85-.64 0-1.28.28-1.66.85L13.58 18H4a2.006 2.006 0 0 0-1.93 2.54l5.07 18.54A4.01 4.01 0 0 0 11 42h26c1.84 0 3.39-1.24 3.85-2.93l5.07-18.54c.05-.16.08-.34.08-.53 0-1.1-.9-2-2-2h-9.58zM18 18l6-8.8 6 8.8H18zm6 16c-2.21 0-4-1.79-4-4s1.79-4 4-4 4 1.79 4 4-1.79 4-4 4z" fill="#FFF"></path></svg><svg width="24" height="24" viewBox="0 0 24 24" id="store-black-24" y="4176"><path d="M20 4H4v2h16V4zm1 10v-2l-1-5H4l-1 5v2h1v6h10v-6h4v6h2v-6h1zm-9 4H6v-4h6v4z"></path></svg><svg width="24" height="24" viewBox="0 0 24 24" id="store_mall_directory-black-24" y="4200"><path d="M20 4H4v2h16V4zm1 10v-2l-1-5H4l-1 5v2h1v6h10v-6h4v6h2v-6h1zm-9 4H6v-4h6v4z"></path></svg><svg width="24" height="24" viewBox="0 0 24 24" id="store_mall_directory-blue-24" y="4224"><path d="M20 4H4v2h16V4zm1 10v-2l-1-5H4l-1 5v2h1v6h10v-6h4v6h2v-6h1zm-9 4H6v-4h6v4z" fill="#005DAA"></path></svg><svg width="48" height="48" viewBox="0 0 48 48" id="store_mall_directory-blue-48" y="4248"><path d="M40 8H8v4h32V8zm2 20v-4l-2-10H8L6 24v4h2v12h20V28h8v12h4V28h2zm-18 8H12v-8h12v8z" fill="#005DAA"></path></svg><svg width="24" height="24" viewBox="0 0 24 24" id="store_mall_directory-green-24" y="4296"><path d="M20 4H4v2h16V4zm1 10v-2l-1-5H4l-1 5v2h1v6h10v-6h4v6h2v-6h1zm-9 4H6v-4h6v4z" fill="#008A00"></path></svg><svg width="24" height="24" viewBox="0 0 24 24" id="store_mall_directory-grey-24" y="4320"><path d="M20 4H4v2h16V4zm1 10v-2l-1-5H4l-1 5v2h1v6h10v-6h4v6h2v-6h1zm-9 4H6v-4h6v4z" fill="#999"></path></svg><svg width="24" height="24" viewBox="0 0 24 24" id="view_module-black-24" y="4344"><path d="M4 11h5V5H4v6zm0 7h5v-6H4v6zm6 0h5v-6h-5v6zm6 0h5v-6h-5v6zm-6-7h5V5h-5v6zm6-6v6h5V5h-5z"></path></svg><svg width="24" height="24" viewBox="0 0 24 24" id="warning-red-24" y="4368"><path d="M1 21h22L12 2 1 21zm12-3h-2v-2h2v2zm0-4h-2v-4h2v4z" fill="#ed3124"></path></svg><svg width="24" height="24" viewBox="0 0 24 24" id="warning-yellow-24" y="4392"><path d="M1 21h22L12 2 1 21zm12-3h-2v-2h2v2zm0-4h-2v-4h2v4z" fill="#FFCF00"></path></svg></svg>